<svg width="24" height="24" viewBox="0 0 24 24" fill="none" xmlns="http://www.w3.org/2000/svg">
<path fill-rule="evenodd" clip-rule="evenodd" d="M5.51436 16.0008L6.69436 14.8188C7.07236 14.4408 7.28036 13.9388 7.28036 13.4048V8.72781C7.28036 7.37081 7.87036 6.07381 8.90036 5.17181C9.93836 4.26181 11.2604 3.86181 12.6374 4.04281C14.9644 4.35181 16.7194 6.45581 16.7194 8.93781V13.4048C16.7194 13.9388 16.9274 14.4408 17.3044 14.8178L18.4854 16.0008H5.51436ZM13.9994 18.3418C13.9994 19.2408 13.0834 20.0008 11.9994 20.0008C10.9154 20.0008 9.99936 19.2408 9.99936 18.3418V18.0008H13.9994V18.3418ZM20.5204 15.2088L18.7194 13.4048V8.93781C18.7194 5.45681 16.2174 2.49981 12.8994 2.06081C10.9774 1.80481 9.03736 2.39181 7.58236 3.66781C6.11836 4.94981 5.28036 6.79381 5.28036 8.72781L5.27936 13.4048L3.47836 15.2088C3.00936 15.6788 2.87036 16.3778 3.12436 16.9908C3.37936 17.6048 3.97236 18.0008 4.63636 18.0008H7.99936V18.3418C7.99936 20.3598 9.79336 22.0008 11.9994 22.0008C14.2054 22.0008 15.9994 20.3598 15.9994 18.3418V18.0008H19.3624C20.0264 18.0008 20.6184 17.6048 20.8724 16.9918C21.1274 16.3778 20.9894 15.6778 20.5204 15.2088Z" fill="#959595"/>
<mask id="mask0" mask-type="alpha" maskUnits="userSpaceOnUse" x="2" y="2" width="19" height="21">
<path fill-rule="evenodd" clip-rule="evenodd" d="M5.51436 16.0008L6.69436 14.8188C7.07236 14.4408 7.28036 13.9388 7.28036 13.4048V8.72781C7.28036 7.37081 7.87036 6.07381 8.90036 5.17181C9.93836 4.26181 11.2604 3.86181 12.6374 4.04281C14.9644 4.35181 16.7194 6.45581 16.7194 8.93781V13.4048C16.7194 13.9388 16.9274 14.4408 17.3044 14.8178L18.4854 16.0008H5.51436ZM13.9994 18.3418C13.9994 19.2408 13.0834 20.0008 11.9994 20.0008C10.9154 20.0008 9.99936 19.2408 9.99936 18.3418V18.0008H13.9994V18.3418ZM20.5204 15.2088L18.7194 13.4048V8.93781C18.7194 5.45681 16.2174 2.49981 12.8994 2.06081C10.9774 1.80481 9.03736 2.39181 7.58236 3.66781C6.11836 4.94981 5.28036 6.79381 5.28036 8.72781L5.27936 13.4048L3.47836 15.2088C3.00936 15.6788 2.87036 16.3778 3.12436 16.9908C3.37936 17.6048 3.97236 18.0008 4.63636 18.0008H7.99936V18.3418C7.99936 20.3598 9.79336 22.0008 11.9994 22.0008C14.2054 22.0008 15.9994 20.3598 15.9994 18.3418V18.0008H19.3624C20.0264 18.0008 20.6184 17.6048 20.8724 16.9918C21.1274 16.3778 20.9894 15.6778 20.5204 15.2088Z" fill="white"/>
</mask>
<g mask="url(#mask0)">
<rect width="24" height="24" fill="#959595"/>
</g>
</svg>
