<svg width="100" height="24" viewBox="0 0 100 24" fill="none" xmlns="http://www.w3.org/2000/svg">
<path d="M0.5 4.54532C0.5 2.70056 1.99548 1.20508 3.84025 1.20508H19.2012C21.046 1.20508 22.5415 2.70056 22.5415 4.54532V19.9063C22.5415 21.7511 21.046 23.2466 19.2012 23.2466H3.84025C1.99548 23.2466 0.5 21.7511 0.5 19.9063V4.54532Z" fill="#FF4C00" stroke="white"/>
<path d="M0 4.54532C0 2.42441 1.71934 0.705078 3.84025 0.705078H17.2811C17.2811 10.2492 9.54409 17.9862 0 17.9862V4.54532Z" fill="white" fill-opacity="0.7"/>
<path opacity="0.53" d="M21.1217 19.9057C21.1217 20.9662 20.2621 21.8258 19.2016 21.8258L5.76074 21.8258C5.76074 13.3422 12.6381 6.46484 21.1217 6.46484L21.1217 19.9057Z" fill="white"/>
<path d="M32.6161 4.83476V10.6649H40.4844V14.7887H32.6161V23.7472H27.2441V0.726794H42.0644V4.83476H32.6161Z" fill="#FF4C00"/>
<path d="M32.6161 4.83476V10.6649H40.4844V14.7887H32.6161V23.7472H27.2441V0.726794H42.0644V4.83476H32.6161Z" fill="url(#paint0_linear)"/>
<path d="M50.8812 17.0797C49.9016 17.1218 49.0959 17.2061 48.4639 17.3325C47.8319 17.4589 47.3315 17.6169 46.9629 17.8065C46.5942 17.996 46.3361 18.212 46.1887 18.4542C46.0517 18.6965 45.9833 18.9598 45.9833 19.2442C45.9833 19.8025 46.136 20.1975 46.4415 20.4292C46.7469 20.6504 47.1946 20.761 47.7845 20.761C48.4165 20.761 48.9695 20.6504 49.4434 20.4292C49.9174 20.208 50.3967 19.8499 50.8812 19.3548V17.0797ZM42.0649 9.63792C43.055 8.76366 44.1505 8.11586 45.3513 7.69454C46.5626 7.26267 47.8582 7.04674 49.238 7.04674C50.2282 7.04674 51.1182 7.21001 51.9082 7.53654C52.7088 7.85253 53.3829 8.3002 53.9306 8.87953C54.4889 9.44832 54.9155 10.1277 55.2104 10.9177C55.5053 11.7077 55.6528 12.5714 55.6528 13.5089V23.7472H53.4092C52.9458 23.7472 52.5929 23.684 52.3506 23.5576C52.1189 23.4312 51.924 23.1679 51.766 22.7676L51.4184 21.867C51.0076 22.2146 50.6126 22.5201 50.2334 22.7834C49.8542 23.0467 49.4592 23.2732 49.0485 23.4628C48.6482 23.6419 48.2163 23.7735 47.7529 23.8578C47.2999 23.9526 46.7943 24 46.2361 24C45.4882 24 44.8088 23.9052 44.1979 23.7156C43.587 23.5155 43.0656 23.2258 42.6337 22.8466C42.2124 22.4674 41.8858 21.9987 41.6541 21.4404C41.4224 20.8716 41.3065 20.2186 41.3065 19.4812C41.3065 18.8914 41.454 18.2962 41.7489 17.6959C42.0438 17.0849 42.5547 16.5319 43.2815 16.0369C44.0083 15.5313 44.9879 15.1099 46.2203 14.7729C47.4527 14.4358 49.0063 14.2462 50.8812 14.2041V13.5089C50.8812 12.5504 50.6811 11.8604 50.2808 11.4391C49.8911 11.0072 49.3328 10.7913 48.6061 10.7913C48.0267 10.7913 47.5527 10.8545 47.1841 10.9809C46.8154 11.1073 46.4836 11.2495 46.1887 11.4075C45.9043 11.5655 45.6251 11.7077 45.3513 11.8341C45.0774 11.9605 44.7509 12.0237 44.3717 12.0237C44.0346 12.0237 43.7502 11.9394 43.5185 11.7709C43.2868 11.6024 43.0972 11.4022 42.9497 11.1705L42.0649 9.63792Z" fill="#FF4C00"/>
<path d="M50.8812 17.0797C49.9016 17.1218 49.0959 17.2061 48.4639 17.3325C47.8319 17.4589 47.3315 17.6169 46.9629 17.8065C46.5942 17.996 46.3361 18.212 46.1887 18.4542C46.0517 18.6965 45.9833 18.9598 45.9833 19.2442C45.9833 19.8025 46.136 20.1975 46.4415 20.4292C46.7469 20.6504 47.1946 20.761 47.7845 20.761C48.4165 20.761 48.9695 20.6504 49.4434 20.4292C49.9174 20.208 50.3967 19.8499 50.8812 19.3548V17.0797ZM42.0649 9.63792C43.055 8.76366 44.1505 8.11586 45.3513 7.69454C46.5626 7.26267 47.8582 7.04674 49.238 7.04674C50.2282 7.04674 51.1182 7.21001 51.9082 7.53654C52.7088 7.85253 53.3829 8.3002 53.9306 8.87953C54.4889 9.44832 54.9155 10.1277 55.2104 10.9177C55.5053 11.7077 55.6528 12.5714 55.6528 13.5089V23.7472H53.4092C52.9458 23.7472 52.5929 23.684 52.3506 23.5576C52.1189 23.4312 51.924 23.1679 51.766 22.7676L51.4184 21.867C51.0076 22.2146 50.6126 22.5201 50.2334 22.7834C49.8542 23.0467 49.4592 23.2732 49.0485 23.4628C48.6482 23.6419 48.2163 23.7735 47.7529 23.8578C47.2999 23.9526 46.7943 24 46.2361 24C45.4882 24 44.8088 23.9052 44.1979 23.7156C43.587 23.5155 43.0656 23.2258 42.6337 22.8466C42.2124 22.4674 41.8858 21.9987 41.6541 21.4404C41.4224 20.8716 41.3065 20.2186 41.3065 19.4812C41.3065 18.8914 41.454 18.2962 41.7489 17.6959C42.0438 17.0849 42.5547 16.5319 43.2815 16.0369C44.0083 15.5313 44.9879 15.1099 46.2203 14.7729C47.4527 14.4358 49.0063 14.2462 50.8812 14.2041V13.5089C50.8812 12.5504 50.6811 11.8604 50.2808 11.4391C49.8911 11.0072 49.3328 10.7913 48.6061 10.7913C48.0267 10.7913 47.5527 10.8545 47.1841 10.9809C46.8154 11.1073 46.4836 11.2495 46.1887 11.4075C45.9043 11.5655 45.6251 11.7077 45.3513 11.8341C45.0774 11.9605 44.7509 12.0237 44.3717 12.0237C44.0346 12.0237 43.7502 11.9394 43.5185 11.7709C43.2868 11.6024 43.0972 11.4022 42.9497 11.1705L42.0649 9.63792Z" fill="url(#paint1_linear)"/>
<path d="M63.1938 9.13232C63.5098 8.83739 63.8363 8.56353 64.1734 8.31073C64.5104 8.05793 64.8686 7.84727 65.2478 7.67873C65.6375 7.49967 66.0536 7.36274 66.4959 7.26794C66.9489 7.16261 67.4387 7.10994 67.9653 7.10994C68.8607 7.10994 69.6507 7.26794 70.3353 7.58394C71.0305 7.8894 71.6151 8.32126 72.0891 8.87953C72.5631 9.42725 72.9212 10.0856 73.1635 10.8545C73.4058 11.6129 73.5269 12.4398 73.5269 13.3351V23.7472H68.6289V13.3351C68.6289 12.5346 68.4446 11.9131 68.0759 11.4707C67.7073 11.0178 67.1648 10.7913 66.4485 10.7913C65.9114 10.7913 65.4058 10.9072 64.9318 11.1389C64.4683 11.3601 64.0154 11.6656 63.573 12.0553V23.7472H58.675V7.36274H61.7086C62.3195 7.36274 62.7198 7.6366 62.9094 8.18433L63.1938 9.13232Z" fill="#FF4C00"/>
<path d="M63.1938 9.13232C63.5098 8.83739 63.8363 8.56353 64.1734 8.31073C64.5104 8.05793 64.8686 7.84727 65.2478 7.67873C65.6375 7.49967 66.0536 7.36274 66.4959 7.26794C66.9489 7.16261 67.4387 7.10994 67.9653 7.10994C68.8607 7.10994 69.6507 7.26794 70.3353 7.58394C71.0305 7.8894 71.6151 8.32126 72.0891 8.87953C72.5631 9.42725 72.9212 10.0856 73.1635 10.8545C73.4058 11.6129 73.5269 12.4398 73.5269 13.3351V23.7472H68.6289V13.3351C68.6289 12.5346 68.4446 11.9131 68.0759 11.4707C67.7073 11.0178 67.1648 10.7913 66.4485 10.7913C65.9114 10.7913 65.4058 10.9072 64.9318 11.1389C64.4683 11.3601 64.0154 11.6656 63.573 12.0553V23.7472H58.675V7.36274H61.7086C62.3195 7.36274 62.7198 7.6366 62.9094 8.18433L63.1938 9.13232Z" fill="url(#paint2_linear)"/>
<path d="M81.4861 0.094798V13.3509H82.2129C82.5183 13.3509 82.7501 13.3088 82.9081 13.2245C83.0661 13.1297 83.2241 12.977 83.3821 12.7663L86.4788 8.15273C86.6684 7.8894 86.8844 7.69453 87.1266 7.56814C87.3689 7.4312 87.6796 7.36274 88.0588 7.36274H92.546L88.3116 13.1929C87.9114 13.7196 87.4374 14.1514 86.8896 14.4885C87.1319 14.6675 87.3531 14.8782 87.5532 15.1205C87.7534 15.3522 87.943 15.6155 88.122 15.9105L92.7356 23.7472H88.3116C87.943 23.7472 87.627 23.6893 87.3636 23.5734C87.1003 23.447 86.8791 23.2311 86.7 22.9256L83.6033 17.1271C83.4558 16.8637 83.3031 16.6952 83.1451 16.6215C82.9871 16.5372 82.7501 16.4951 82.4341 16.4951H81.4861V23.7472H76.5881V0.094798H81.4861Z" fill="#FF4C00"/>
<path d="M81.4861 0.094798V13.3509H82.2129C82.5183 13.3509 82.7501 13.3088 82.9081 13.2245C83.0661 13.1297 83.2241 12.977 83.3821 12.7663L86.4788 8.15273C86.6684 7.8894 86.8844 7.69453 87.1266 7.56814C87.3689 7.4312 87.6796 7.36274 88.0588 7.36274H92.546L88.3116 13.1929C87.9114 13.7196 87.4374 14.1514 86.8896 14.4885C87.1319 14.6675 87.3531 14.8782 87.5532 15.1205C87.7534 15.3522 87.943 15.6155 88.122 15.9105L92.7356 23.7472H88.3116C87.943 23.7472 87.627 23.6893 87.3636 23.5734C87.1003 23.447 86.8791 23.2311 86.7 22.9256L83.6033 17.1271C83.4558 16.8637 83.3031 16.6952 83.1451 16.6215C82.9871 16.5372 82.7501 16.4951 82.4341 16.4951H81.4861V23.7472H76.5881V0.094798H81.4861Z" fill="url(#paint3_linear)"/>
<path d="M99.1395 7.36274V23.7472H94.2415V7.36274H99.1395ZM99.6451 2.87557C99.6451 3.26531 99.5661 3.63397 99.4081 3.98157C99.2501 4.31863 99.0341 4.61883 98.7603 4.88216C98.4864 5.13496 98.1651 5.34035 97.7965 5.49835C97.4383 5.64582 97.0539 5.71955 96.6431 5.71955C96.2428 5.71955 95.8689 5.64582 95.5213 5.49835C95.1737 5.34035 94.863 5.13496 94.5891 4.88216C94.3258 4.61883 94.1151 4.31863 93.9571 3.98157C93.8096 3.63397 93.7359 3.26531 93.7359 2.87557C93.7359 2.47531 93.8096 2.10138 93.9571 1.75378C94.1151 1.40619 94.3258 1.10072 94.5891 0.837393C94.863 0.574062 95.1737 0.368663 95.5213 0.221197C95.8689 0.0737324 96.2428 0 96.6431 0C97.0539 0 97.4383 0.0737324 97.7965 0.221197C98.1651 0.368663 98.4864 0.574062 98.7603 0.837393C99.0341 1.10072 99.2501 1.40619 99.4081 1.75378C99.5661 2.10138 99.6451 2.47531 99.6451 2.87557Z" fill="#FF4C00"/>
<path d="M99.1395 7.36274V23.7472H94.2415V7.36274H99.1395ZM99.6451 2.87557C99.6451 3.26531 99.5661 3.63397 99.4081 3.98157C99.2501 4.31863 99.0341 4.61883 98.7603 4.88216C98.4864 5.13496 98.1651 5.34035 97.7965 5.49835C97.4383 5.64582 97.0539 5.71955 96.6431 5.71955C96.2428 5.71955 95.8689 5.64582 95.5213 5.49835C95.1737 5.34035 94.863 5.13496 94.5891 4.88216C94.3258 4.61883 94.1151 4.31863 93.9571 3.98157C93.8096 3.63397 93.7359 3.26531 93.7359 2.87557C93.7359 2.47531 93.8096 2.10138 93.9571 1.75378C94.1151 1.40619 94.3258 1.10072 94.5891 0.837393C94.863 0.574062 95.1737 0.368663 95.5213 0.221197C95.8689 0.0737324 96.2428 0 96.6431 0C97.0539 0 97.4383 0.0737324 97.7965 0.221197C98.1651 0.368663 98.4864 0.574062 98.7603 0.837393C99.0341 1.10072 99.2501 1.40619 99.4081 1.75378C99.5661 2.10138 99.6451 2.47531 99.6451 2.87557Z" fill="url(#paint4_linear)"/>
<defs>
<linearGradient id="paint0_linear" x1="99.6451" y1="-4.3497e-06" x2="25.8323" y2="18.3078" gradientUnits="userSpaceOnUse">
<stop stop-color="white" stop-opacity="0.5"/>
<stop offset="1" stop-color="white" stop-opacity="0"/>
</linearGradient>
<linearGradient id="paint1_linear" x1="99.6451" y1="-4.3497e-06" x2="25.8323" y2="18.3078" gradientUnits="userSpaceOnUse">
<stop stop-color="white" stop-opacity="0.5"/>
<stop offset="1" stop-color="white" stop-opacity="0"/>
</linearGradient>
<linearGradient id="paint2_linear" x1="99.6451" y1="-4.3497e-06" x2="25.8323" y2="18.3078" gradientUnits="userSpaceOnUse">
<stop stop-color="white" stop-opacity="0.5"/>
<stop offset="1" stop-color="white" stop-opacity="0"/>
</linearGradient>
<linearGradient id="paint3_linear" x1="99.6451" y1="-4.3497e-06" x2="25.8323" y2="18.3078" gradientUnits="userSpaceOnUse">
<stop stop-color="white" stop-opacity="0.5"/>
<stop offset="1" stop-color="white" stop-opacity="0"/>
</linearGradient>
<linearGradient id="paint4_linear" x1="99.6451" y1="-4.3497e-06" x2="25.8323" y2="18.3078" gradientUnits="userSpaceOnUse">
<stop stop-color="white" stop-opacity="0.5"/>
<stop offset="1" stop-color="white" stop-opacity="0"/>
</linearGradient>
</defs>
</svg>
